<svg
        xmlns="http://www.w3.org/2000/svg"
        width="40"
        height="32"
        viewBox="0 0 40 32"
        fill="none">
    <path
            fill-rule="evenodd"
            clip-rule="evenodd"
            d="M20.3926 16.4026C20.3926 15.5337 21.0949 14.8293 21.9612 14.8293H38.4318C39.2981 14.8293 40.0004 15.5337 40.0004 16.4026V27.4156V31.2119C40.0004 31.8839 39.2146 32.2465 38.706 31.8091L35.4255 28.9889H21.9612C21.0949 28.9889 20.3926 28.2845 20.3926 27.4156V16.4026ZM21.9612 17.1892C21.9612 16.7547 22.312 16.4026 22.7455 16.4026H37.6475C38.081 16.4026 38.4318 16.7547 38.4318 17.1892V25.0557V26.629V29.7756L35.6867 27.4156H22.7455C22.312 27.4156 21.9612 27.0635 21.9612 26.629V17.1892ZM25.0985 21.9091C25.0985 22.3436 24.7477 22.6958 24.3141 22.6958C23.8806 22.6958 23.5298 22.3436 23.5298 21.9091C23.5298 21.4746 23.8806 21.1225 24.3141 21.1225C24.7477 21.1225 25.0985 21.4746 25.0985 21.9091ZM28.2357 22.6958C28.6692 22.6958 29.02 22.3436 29.02 21.9091C29.02 21.4746 28.6692 21.1225 28.2357 21.1225C27.8022 21.1225 27.4514 21.4746 27.4514 21.9091C27.4514 22.3436 27.8022 22.6958 28.2357 22.6958ZM32.9416 21.9091C32.9416 22.3436 32.5908 22.6958 32.1573 22.6958C31.7238 22.6958 31.373 22.3436 31.373 21.9091C31.373 21.4746 31.7238 21.1225 32.1573 21.1225C32.5908 21.1225 32.9416 21.4746 32.9416 21.9091ZM36.0789 22.6958C36.5124 22.6958 36.8632 22.3436 36.8632 21.9091C36.8632 21.4746 36.5124 21.1225 36.0789 21.1225C35.6453 21.1225 35.2945 21.4746 35.2945 21.9091C35.2945 22.3436 35.6453 22.6958 36.0789 22.6958Z"
            fill="#D06EFD"/>
    <path
            fill-rule="evenodd"
            clip-rule="evenodd"
            d="M0 16.3903C0 15.5282 0.702359 14.8293 1.56863 14.8293H18.0392C18.9055 14.8293 19.6078 15.5282 19.6078 16.3903V21.5371L22.7731 24.0809C23.2051 24.588 22.8428 25.3659 22.1749 25.3659H19.6078V27.3171C19.6078 28.1792 18.9055 28.878 18.0392 28.878H1.56863C0.702359 28.878 0 28.1792 0 27.3171V16.3903ZM1.56863 17.1707C1.56863 16.7397 1.91942 16.3903 2.35294 16.3903H17.2549C17.6884 16.3903 18.0392 16.7397 18.0392 17.1707V21.4634L20.3922 24.1951H18.0392V26.5366C18.0392 26.9677 17.6884 27.3171 17.2549 27.3171H2.35294C1.91942 27.3171 1.56863 26.9677 1.56863 26.5366V17.1707Z"
            fill="#F5BB00"/>
    <path
            fill-rule="evenodd"
            clip-rule="evenodd"
            d="M0 1.5733C0 0.704401 0.702359 0 1.56863 0H18.0392C18.9055 0 19.6078 0.704401 19.6078 1.5733V12.5864C19.6078 13.4553 18.9055 14.1597 18.0392 14.1597H11.6337L8.35325 16.9798C7.84467 17.4172 7.05882 17.0546 7.05882 16.3826V14.1597H1.56863C0.702359 14.1597 0 13.4553 0 12.5864V1.5733ZM1.56863 2.35994C1.56863 1.92547 1.91942 1.5733 2.35294 1.5733H17.2549C17.6884 1.5733 18.0392 1.92547 18.0392 2.35994V11.7997C18.0392 12.2342 17.6884 12.5864 17.2549 12.5864H11.3725L8.62745 14.9463V12.5864H2.35294C1.91942 12.5864 1.56863 12.2342 1.56863 11.7997V2.35994Z"
            fill="#61C9A8"/>
    <path
            fill-rule="evenodd"
            clip-rule="evenodd"
            d="M39.9997 1.56097C39.9997 0.698885 39.2974 0 38.4311 0H21.9605C21.0942 0 20.3919 0.698885 20.3919 1.56097V6.70979L18.2266 9.25138C17.7946 9.75852 18.1569 10.5366 18.8248 10.5366H20.3919V12.4878C20.3919 13.3499 21.0942 14.0488 21.9605 14.0488H38.4311C39.2974 14.0488 39.9997 13.3499 39.9997 12.4878V1.56097ZM38.4311 2.34146C38.4311 1.91039 38.0803 1.56097 37.6468 1.56097H22.7448C22.3113 1.56097 21.9605 1.91039 21.9605 2.34146V6.63414L19.6076 9.36585H21.9605V11.7073C21.9605 12.1384 22.3113 12.4878 22.7448 12.4878H37.6468C38.0803 12.4878 38.4311 12.1384 38.4311 11.7073V2.34146Z"
            fill="#FF6666"/>
</svg>
